<?xml version="1.0" standalone="no"?>
<!DOCTYPE svg PUBLIC "-//W3C//DTD SVG 20010904//EN"
 "http://www.w3.org/TR/2001/REC-SVG-20010904/DTD/svg10.dtd">
<svg version="1.0" xmlns="http://www.w3.org/2000/svg"
 width="1280.000000pt" height="1222.000000pt" viewBox="0 0 1280.000000 1222.000000"
 preserveAspectRatio="xMidYMid meet">
<g transform="translate(0.000000,1222.000000) scale(0.100000,-0.100000)"
fill="#000000" stroke="none">
<path d="M8590 12199 c-396 -33 -982 -430 -1823 -1235 l-210 -201 -116 50
c-348 147 -811 270 -1206 321 -327 41 -796 46 -1095 12 -495 -58 -954 -181
-1388 -373 -68 -30 -127 -53 -132 -51 -4 2 -106 96 -226 210 -668 630 -1153
980 -1546 1114 -107 36 -120 38 -238 39 -113 0 -130 -2 -175 -25 -191 -93
-275 -342 -279 -820 -3 -391 44 -842 154 -1490 43 -248 167 -875 223 -1121
l33 -147 -32 -128 c-110 -445 -96 -887 43 -1302 24 -74 43 -135 41 -137 -2 -2
-120 -22 -263 -45 -143 -22 -273 -46 -288 -52 -30 -12 -57 -54 -57 -88 0 -35
27 -77 60 -90 27 -11 67 -7 323 34 161 25 299 46 309 46 10 0 35 -32 64 -81
26 -45 72 -115 101 -156 29 -41 53 -78 53 -82 0 -4 -91 -41 -202 -81 -112 -40
-225 -82 -251 -93 -51 -21 -77 -56 -77 -103 0 -32 59 -94 89 -94 12 0 148 46
301 101 l280 101 110 -106 c369 -352 810 -616 1375 -821 171 -61 463 -145 650
-185 83 -17 155 -33 162 -35 9 -3 7 -22 -7 -71 -98 -340 -76 -753 60 -1139 79
-223 236 -532 340 -670 l49 -65 136 -753 c74 -413 138 -764 141 -779 5 -26 0
-30 -87 -74 -496 -249 -797 -625 -802 -1004 -3 -140 16 -195 92 -271 68 -68
122 -89 246 -96 196 -12 483 82 718 233 37 24 69 44 70 44 1 0 2 -22 3 -48 1
-60 43 -141 96 -186 129 -111 394 -169 768 -170 405 0 706 79 851 223 123 124
190 352 219 751 9 129 6 676 -5 770 -2 25 -9 113 -15 195 -6 83 -13 164 -16
182 -5 28 -3 33 17 37 13 2 645 25 1404 51 759 25 1433 49 1499 52 l119 6 -6
-44 c-4 -24 -9 -105 -12 -179 -3 -74 -8 -148 -10 -165 -2 -16 -7 -113 -11
-215 -4 -102 -8 -192 -10 -200 -1 -8 -3 -61 -3 -116 l-1 -102 -67 -12 c-189
-33 -393 -165 -521 -338 -143 -193 -221 -470 -169 -604 45 -117 206 -190 382
-173 237 22 553 121 805 251 230 118 436 285 501 407 31 58 34 70 37 174 4
105 2 121 -39 280 -43 164 -44 172 -44 328 0 88 4 182 8 208 l8 49 68 -104
c89 -136 200 -274 356 -442 l127 -137 -17 -42 c-144 -352 -156 -621 -41 -862
51 -108 114 -185 177 -220 45 -25 65 -30 121 -29 58 0 78 6 155 44 75 37 104
59 199 154 134 134 232 277 333 486 147 306 223 621 200 827 -20 182 -68 253
-252 376 -136 91 -223 168 -282 252 -87 121 -114 209 -144 472 l-21 171 21
144 c11 79 19 172 18 208 -2 36 7 121 19 190 30 175 39 272 41 445 2 217 -22
398 -81 601 l-11 41 98 129 c170 223 345 431 772 921 547 628 679 810 757
1043 50 148 67 259 67 430 0 351 -122 728 -329 1020 -114 160 -298 316 -427
361 -195 69 -354 7 -404 -156 -51 -164 -16 -389 134 -874 35 -113 76 -249 91
-301 104 -354 -71 -748 -540 -1215 -195 -194 -332 -307 -576 -470 -85 -57
-181 -126 -213 -153 l-59 -50 -92 43 c-502 233 -1403 425 -2601 555 -164 18
-162 10 -33 102 147 104 257 196 393 329 l110 106 185 -68 c102 -37 200 -68
218 -69 72 -1 116 67 88 133 -18 43 -19 44 -197 108 -79 28 -148 55 -152 59
-4 4 21 49 56 101 35 52 83 128 106 169 24 41 46 79 50 83 4 4 104 -8 221 -27
193 -31 217 -33 247 -21 67 28 78 130 19 168 -13 9 -105 29 -206 46 -100 16
-184 32 -187 35 -3 2 9 47 26 98 85 260 105 394 105 703 0 214 -3 269 -22 379
-24 139 -48 242 -88 373 l-25 83 40 182 c180 820 290 1468 347 2058 25 251 25
705 1 858 -60 378 -199 524 -477 501z m-3632 -9840 c255 -206 367 -559 317
-995 -7 -60 -8 -61 -60 -92 -64 -39 -305 -219 -395 -295 -35 -31 -66 -54 -68
-52 -2 2 5 32 16 67 74 231 107 585 107 1171 0 160 4 247 10 247 6 0 39 -23
73 -51z"/>
</g>
</svg>
